<?xml version="1.0" standalone="no"?>
<!DOCTYPE svg PUBLIC "-//W3C//DTD SVG 20010904//EN"
 "http://www.w3.org/TR/2001/REC-SVG-20010904/DTD/svg10.dtd">
<svg version="1.0" xmlns="http://www.w3.org/2000/svg"
 width="450.000000pt" height="300.000000pt" viewBox="0 0 450.000000 300.000000"
 preserveAspectRatio="xMidYMid meet">

<g transform="translate(0.000000,300.000000) scale(0.100000,-0.100000)"
fill="#000000" stroke="none">
<path d="M0 1500 l0 -1500 2250 0 2250 0 0 1500 0 1500 -2250 0 -2250 0 0
-1500z m2290 978 c21 -40 19 -60 -13 -95 -11 -12 -17 -29 -14 -38 5 -12 14 -8
40 22 25 27 42 36 65 36 45 0 82 -28 82 -62 0 -31 -22 -56 -42 -48 -9 4 -7 6
3 6 38 2 32 57 -8 72 -31 12 -58 -3 -78 -42 -42 -80 51 -152 149 -115 l43 16
-5 55 c-3 40 -1 55 8 55 9 0 11 -13 7 -46 -4 -41 -3 -44 10 -31 8 8 16 32 16
53 2 35 6 41 41 57 35 16 65 16 40 -1 -12 -8 -41 -57 -109 -187 -26 -49 -48
-91 -49 -93 -2 -1 -38 7 -81 18 -93 24 -188 25 -270 4 -33 -8 -69 -17 -80 -20
-17 -4 -30 13 -82 113 -35 65 -73 133 -85 152 -12 19 -18 32 -12 30 5 -2 25
-10 45 -18 32 -12 37 -18 36 -46 -1 -37 29 -89 45 -79 7 4 8 3 4 -5 -11 -18
61 -44 104 -37 70 11 105 95 60 144 -23 24 -59 29 -78 10 -17 -17 -15 -45 6
-57 9 -6 12 -11 5 -11 -17 0 -43 29 -43 49 0 28 38 61 71 61 41 0 66 -15 89
-52 17 -29 18 -29 25 -8 5 15 1 29 -13 43 -10 12 -22 30 -25 40 -7 19 14 69
41 100 17 20 19 18 52 -45z m-303 -177 c-1 -22 -5 -37 -9 -34 -12 6 -10 73 2
73 5 0 9 -18 7 -39z m143 19 c0 -5 -4 -10 -10 -10 -5 0 -10 5 -10 10 0 6 5 10
10 10 6 0 10 -4 10 -10z m260 0 c0 -5 -4 -10 -10 -10 -5 0 -10 5 -10 10 0 6 5
10 10 10 6 0 10 -4 10 -10z m-469 -108 c45 -40 51 -105 15 -166 -33 -57 -95
-109 -146 -125 -30 -9 -38 -15 -33 -29 5 -14 3 -13 -9 2 -15 19 -13 21 32 36
65 22 95 43 130 92 56 77 49 165 -17 196 -33 16 -36 15 -71 -3 -81 -45 -49
-168 37 -140 28 8 38 52 18 72 -15 15 -37 11 -37 -8 0 -6 5 -7 10 -4 6 3 10 2
10 -4 0 -18 -17 -21 -30 -6 -10 12 -10 18 0 30 26 32 70 11 70 -34 0 -80 -118
-80 -135 0 -21 92 85 154 156 91z m768 13 c77 -39 56 -165 -28 -165 -49 0 -82
65 -49 98 28 28 83 -3 58 -33 -13 -15 -30 -12 -30 6 0 6 5 7 10 4 6 -3 10 -2
10 4 0 19 -22 23 -37 8 -20 -20 -10 -64 18 -72 87 -28 118 105 33 141 -40 17
-72 7 -103 -32 -25 -32 -27 -74 -4 -122 17 -36 72 -97 108 -120 11 -7 6 -6
-11 2 -38 18 -92 78 -110 122 -24 58 -18 102 20 140 38 38 70 43 115 19z
m-354 -136 c172 -32 302 -147 363 -323 21 -62 24 -83 20 -171 -4 -89 -8 -108
-39 -170 -89 -182 -271 -288 -464 -271 -79 7 -117 15 -111 25 2 3 -9 7 -24 8
-62 5 -192 113 -243 203 -66 116 -75 282 -24 409 87 211 302 331 522 290z
m-595 -38 c0 -5 3 -23 6 -40 9 -41 -9 -40 -24 2 -15 43 -15 47 3 47 8 0 15 -4
15 -9z m1050 0 c0 -5 -6 -24 -14 -42 -12 -29 -16 -31 -22 -16 -8 21 10 67 26
67 5 0 10 -4 10 -9z m-60 -47 c0 -14 -4 -22 -10 -19 -5 3 -10 17 -10 31 0 14
4 22 10 19 6 -3 10 -17 10 -31z m-940 7 c0 -11 -4 -23 -10 -26 -6 -4 -10 5
-10 19 0 14 5 26 10 26 6 0 10 -9 10 -19z m60 12 c0 -5 -11 -21 -24 -38 l-24
-30 11 38 c7 20 18 37 24 37 7 0 13 -3 13 -7z m836 -33 l14 -35 -25 28 c-26
29 -33 51 -14 45 6 -2 17 -19 25 -38z m-973 -67 c-7 -2 -21 -2 -30 0 -10 3 -4
5 12 5 17 0 24 -2 18 -5z m1138 -11 c11 -14 11 -15 -1 -4 -16 14 -71 16 -85 3
-6 -5 -21 -4 -36 3 -24 10 -19 11 41 13 54 2 71 -1 81 -15z m48 -72 c0 -8 -6
0 -14 19 -8 18 -15 36 -15 40 1 13 29 -45 29 -59z m-1281 25 c-6 -14 -13 -23
-15 -21 -5 5 15 46 22 46 3 0 -1 -11 -7 -25z m82 -5 c0 -5 -5 -10 -11 -10 -8
0 -7 -6 2 -17 12 -17 12 -17 -5 -1 -10 9 -15 21 -12 27 9 14 26 14 26 1z
m1064 -30 c10 -13 9 -13 -6 -1 -10 7 -18 21 -17 30 0 13 1 14 6 1 3 -8 11 -22
17 -30z m61 30 c3 -5 -3 -10 -15 -10 -12 0 -18 5 -15 10 3 6 10 10 15 10 5 0
12 -4 15 -10z m-1080 -30 c-3 -5 -12 -10 -18 -10 -7 0 -6 4 3 10 19 12 23 12
15 0z m-128 -161 c7 -15 37 -55 67 -89 63 -70 93 -146 82 -205 -7 -33 -6 -34
36 -45 54 -15 103 -65 118 -120 15 -56 -6 -117 -53 -149 l-32 -22 29 26 c78
72 59 191 -38 242 -39 20 -123 18 -177 -5 -25 -11 -104 -59 -175 -107 -124
-84 -204 -131 -204 -120 0 2 21 16 48 29 26 13 62 37 81 53 32 28 33 29 22 70
-12 46 -59 92 -94 94 -63 3 -97 -18 -97 -61 0 -32 17 -50 47 -50 26 0 50 35
31 46 -6 4 -14 2 -16 -4 -5 -17 -22 -15 -22 2 0 21 27 27 45 10 18 -19 19 -26
3 -46 -29 -35 -89 -23 -100 20 -9 32 17 78 51 92 67 27 148 -26 166 -108 7
-32 8 -33 28 -18 68 49 179 109 230 123 l57 16 0 57 c0 40 -7 71 -25 107 -37
74 -50 82 -82 52 -80 -74 -64 -209 25 -209 36 0 52 16 52 54 0 28 -1 29 -14
10 -14 -18 -15 -18 -22 -1 -8 22 9 42 30 34 24 -9 31 -53 13 -81 -34 -52 -114
-34 -140 31 -21 52 -6 112 38 159 37 39 33 45 -35 69 -116 41 -213 -8 -227
-114 -6 -44 19 -97 49 -107 25 -7 38 3 31 24 -6 15 -5 15 10 3 32 -26 -12 -52
-58 -35 -22 9 -45 57 -45 96 0 51 39 120 80 140 39 20 98 23 149 8 19 -5 36
-8 38 -6 2 1 -4 19 -12 39 -9 22 -14 62 -13 99 l1 63 7 -70 c3 -38 11 -82 17
-96z m1278 8 c-9 -22 -14 -41 -12 -43 2 -2 19 1 38 6 90 26 169 1 206 -65 32
-56 30 -115 -3 -154 -16 -19 -35 -31 -50 -31 -28 0 -43 26 -24 43 10 10 12 8
7 -6 -4 -11 -1 -20 7 -23 24 -9 54 14 66 52 27 81 -25 168 -108 180 -50 7
-121 -7 -160 -32 l-23 -15 27 -21 c57 -46 73 -154 29 -202 -59 -64 -172 -1
-121 69 16 22 49 13 44 -12 -2 -9 -7 -15 -13 -12 -5 2 -9 7 -7 12 1 4 -2 7 -7
7 -16 0 -20 -26 -7 -51 18 -36 69 -38 101 -3 42 45 28 131 -29 184 l-27 25
-20 -25 c-38 -47 -59 -103 -59 -161 l0 -56 58 -16 c49 -14 155 -71 229 -123
21 -15 22 -14 33 27 22 83 103 129 168 95 59 -31 59 -111 -1 -127 -46 -12 -90
49 -49 69 21 12 42 5 42 -14 0 -17 -17 -19 -22 -2 -2 6 -10 8 -16 4 -19 -11 5
-46 31 -46 68 0 60 103 -8 110 -71 8 -122 -30 -135 -99 -8 -43 -7 -43 37 -75
25 -17 53 -37 62 -44 42 -34 -41 16 -129 77 -160 112 -223 142 -300 143 -74 0
-135 -41 -158 -107 -6 -18 -11 -23 -11 -12 -2 49 55 110 119 127 37 10 38 11
33 49 -8 62 21 131 86 205 61 69 80 113 83 192 l2 49 3 -54 c3 -34 -2 -68 -12
-94z m-1229 44 c-1 -65 -16 -61 -16 5 0 34 6 54 15 54 1 0 2 -27 1 -59z m1184
6 c0 -66 -15 -72 -16 -6 -1 32 3 56 7 53 5 -3 9 -24 9 -47z m-1135 16 c-4 -10
-11 -31 -15 -48 -7 -28 -8 -28 -9 -5 -1 35 9 70 21 70 6 0 7 -8 3 -17z m1089
-5 c3 -13 5 -36 5 -53 -1 -30 -1 -30 -9 5 -4 19 -11 43 -15 53 -4 9 -3 17 3
17 5 0 12 -10 16 -22z m-1272 -128 c-19 -4 -47 -20 -63 -36 -30 -28 -44 -29
-33 -1 7 19 69 46 104 45 20 0 19 -2 -8 -8z m1481 -3 c34 -15 64 -44 54 -54
-4 -3 -17 5 -31 18 -13 13 -39 29 -58 35 -18 7 -25 13 -15 13 10 1 32 -5 50
-12z m-1461 -24 c-18 -9 -42 -29 -53 -44 -21 -29 -39 -38 -39 -19 0 14 49 60
75 71 37 15 51 9 17 -8z m1444 -12 c28 -20 47 -51 39 -59 -4 -4 -19 8 -33 25
-15 18 -43 39 -62 48 l-35 16 35 -7 c19 -4 44 -14 56 -23z m-1438 -30 c-12
-15 -28 -37 -35 -47 -9 -15 -12 -16 -12 -3 -1 8 13 30 30 47 39 40 49 42 17 3z
m1401 0 c30 -28 41 -61 21 -61 -5 0 -10 7 -10 16 0 8 -13 29 -29 45 -38 38
-23 38 18 0z m-1439 -155 c0 -3 -13 -18 -30 -34 -34 -35 -42 -21 -8 15 19 21
38 30 38 19z m1497 -18 c36 -40 34 -61 -2 -22 -19 20 -35 38 -35 40 0 11 19 1
37 -18z m-1467 -17 c0 -5 -10 -13 -22 -16 -13 -4 -34 -19 -47 -33 l-24 -27 18
30 c10 17 26 35 34 42 19 15 41 17 41 4z m1453 -19 c35 -36 35 -49 1 -17 -15
14 -33 25 -40 25 -7 0 -16 5 -19 10 -14 23 33 8 58 -18z m-1835 -27 c36 -43
24 -89 -29 -108 -24 -8 -59 20 -59 47 0 28 26 42 46 25 14 -12 10 -29 -7 -29
-6 0 -7 5 -4 10 3 6 -1 10 -10 10 -11 0 -15 -7 -13 -22 4 -33 58 -37 76 -7 26
42 -13 91 -73 91 -92 0 -146 -116 -94 -201 11 -18 18 -35 15 -38 -11 -11 -46
79 -46 118 0 111 131 180 198 104z m2288 15 c54 -26 78 -74 72 -139 -4 -44
-35 -108 -46 -96 -3 3 3 14 13 25 23 25 31 101 15 140 -34 82 -151 100 -180
29 -11 -25 -10 -32 6 -50 24 -27 68 -22 72 9 3 23 -13 31 -20 10 -2 -6 -10 -8
-17 -4 -9 6 -9 11 0 22 15 18 24 18 42 -1 21 -20 11 -50 -21 -64 -22 -10 -30
-9 -51 7 -32 23 -38 55 -16 88 30 46 70 53 131 24z m-1896 -10 c0 -5 -6 -10
-12 -10 -7 0 -25 -7 -40 -14 -39 -20 -35 -10 5 14 36 22 47 25 47 10z m1420
-5 c27 -15 20 -19 -17 -9 -13 4 -23 10 -23 15 0 12 11 11 40 -6z m-1169 -32
c15 -9 31 -23 34 -31 3 -8 -8 -4 -26 9 -45 32 -112 36 -176 10 -63 -25 -71
-18 -10 9 54 24 140 26 178 3z m1062 -7 c21 -10 36 -21 33 -23 -2 -2 -19 4
-38 13 -21 11 -56 18 -94 18 -51 1 -66 -3 -97 -27 -20 -15 -34 -22 -32 -15 3
7 20 23 38 36 27 20 42 23 92 20 33 -2 77 -12 98 -22z m-1100 -28 c14 -11 6
-13 -48 -14 -54 -1 -63 1 -54 12 14 17 80 18 102 2z m1053 -4 c18 -15 17 -15
-15 -10 -18 3 -48 6 -65 7 -26 0 -28 2 -11 9 32 14 70 11 91 -6z m-1056 -28
c0 -2 -20 -11 -45 -19 -48 -17 -64 -6 -17 11 28 11 62 15 62 8z m1034 -17 c19
-17 0 -16 -39 2 l-40 19 35 -6 c19 -3 39 -10 44 -15z m-218 -33 c1 -7 5 -24 8
-37 4 -18 2 -16 -9 6 -15 31 -20 63 -8 51 4 -3 8 -13 9 -20z m-782 -2 c19 -18
19 -24 5 -44 -9 -12 -10 -12 -5 4 12 37 -43 63 -72 34 -16 -16 -15 -70 1 -88
10 -12 9 -12 -5 -1 -23 17 -24 74 -2 95 8 9 26 16 39 16 13 0 31 -7 39 -16z
m970 0 c17 -16 22 -69 8 -78 -5 -3 -6 8 -4 25 5 35 -12 59 -44 59 -25 0 -44
-26 -37 -50 4 -13 3 -13 -6 0 -6 8 -11 18 -11 22 0 15 33 38 55 38 13 0 31 -7
39 -16z m685 -30 c-24 -29 -67 -44 -121 -42 l-53 1 60 6 c40 4 71 14 90 28 36
27 42 28 24 7z m-1676 -15 c3 -13 1 -19 -6 -16 -15 5 -22 37 -9 37 5 0 12 -9
15 -21z m955 4 c-2 -9 -8 -18 -15 -20 -7 -3 -9 3 -6 16 6 25 26 28 21 4z
m-1570 -21 c31 3 66 8 77 12 11 3 7 0 -10 -8 -52 -26 -175 -15 -175 16 0 5 11
1 25 -8 19 -12 40 -15 83 -12z m2092 13 c14 -8 21 -14 15 -14 -5 0 -21 6 -35
14 -14 8 -20 14 -15 14 6 0 21 -6 35 -14z m204 -36 c-11 -19 -71 -39 -111 -38
-34 1 -32 2 15 9 29 4 62 15 75 23 27 19 30 20 21 6z m-2209 -8 c-6 -5 -21
-11 -35 -15 -21 -5 -20 -3 5 9 35 17 42 18 30 6z m1411 -18 c-6 -6 -36 9 -36
18 0 5 9 4 20 -3 10 -7 18 -14 16 -15z m599 17 c3 -6 -1 -7 -9 -4 -18 7 -21
14 -7 14 6 0 13 -4 16 -10z m-1469 -28 c-16 -2 -32 0 -37 5 -5 5 7 7 29 4 34
-5 35 -6 8 -9z m-633 1 c-7 -2 -21 -2 -30 0 -10 3 -4 5 12 5 17 0 24 -2 18 -5z
m1550 0 c-7 -2 -19 -2 -25 0 -7 3 -2 5 12 5 14 0 19 -2 13 -5z m452 -62 c225
-5 -137 -7 -920 -7 -710 0 -1144 3 -965 6 477 8 1460 8 1885 1z
-5 14 -18 17 -31 2 -12 0 -19 -6 -16 -5 4 -9 12 -9 20 0 8 -8 19 -17 24 -10 6
-13 10 -8 11 6 0 16 -4 23 -8z m173 -9 c13 -16 12 -17 -3 -4 -15 11 -21 11
-33 1 -11 -9 -13 -15 -5 -20 8 -5 7 -9 -4 -13 -23 -9 -21 29 2 42 24 14 28 14
43 -6z m297 5 c7 -7 12 -19 11 -27 0 -14 -1 -14 -6 -1 -4 8 -13 20 -22 27 -9
7 -11 13 -5 13 5 0 15 -5 22 -12z m-726 -10 c-5 -7 -12 -24 -15 -38 -3 -18 -5
-15 -6 13 -1 28 3 37 15 37 12 0 14 -3 6 -12z m566 0 c-9 -7 -19 -24 -21 -38
-3 -18 -5 -14 -6 13 -1 32 2 37 21 37 19 0 20 -1 6 -12z m117 -22 c0 -19 -3
-32 -7 -29 -14 8 -8 63 6 63 1 0 1 -15 1 -34z m-1742 17 c-62 -2 -165 -2 -230
0 -65 1 -14 3 112 3 127 0 180 -2 118 -3z m2269 0 c-62 -2 -161 -2 -220 0 -59
1 -8 3 113 3 121 0 169 -2 107 -3z m-1382 -28 c-10 -12 -8 -16 11 -24 16 -6
18 -10 8 -10 -9 -1 -22 6 -29 14 -12 15 -6 35 12 35 7 0 6 -5 -2 -15z m47 9
c-3 -3 -12 -4 -19 -1 -8 3 -5 6 6 6 11 1 17 -2 13 -5z m-640 -40 c-3 -3 -12
-4 -19 -1 -8 3 -5 6 6 6 11 1 17 -2 13 -5z"/>
<path d="M2238 2243 c-23 -6 -34 -49 -18 -68 26 -31 70 -11 70 32 0 25 -25 42
-52 36z"/>
<path d="M2141 2055 c-123 -35 -240 -129 -293 -235 -98 -197 -24 -453 167
-575 130 -83 285 -93 423 -28 73 34 162 120 201 192 132 248 24 532 -239 632
-71 27 -190 33 -259 14z m230 -35 c33 -12 77 -31 97 -44 47 -30 112 -100 140
-149 32 -56 26 -60 -8 -5 -43 69 -107 127 -180 162 -61 29 -72 31 -175 31
-102 0 -114 -2 -165 -29 -79 -41 -126 -81 -166 -140 -19 -28 -34 -46 -34 -40
0 16 58 94 94 127 38 34 133 84 184 96 66 16 150 12 213 -9z m155 -193 c1 -1
-1 -18 -6 -37 -4 -19 -8 -30 -9 -23 -2 26 -33 43 -78 43 -51 0 -83 -20 -83
-52 0 -24 18 -58 30 -58 18 0 148 -88 164 -111 9 -13 16 -37 16 -54 0 -79 -81
-133 -184 -122 -81 8 -96 19 -96 72 0 24 5 47 10 50 6 4 10 -5 10 -20 0 -16
12 -38 29 -56 24 -24 38 -29 75 -29 66 0 101 40 80 93 -3 8 -40 38 -83 67 -86
58 -111 90 -111 143 0 41 38 93 73 101 20 4 158 -1 163 -7z m-440 -13 c-13
-13 -16 -45 -16 -195 l0 -179 61 0 c71 0 93 10 121 53 11 18 18 24 15 15 -3
-9 -9 -33 -13 -52 l-6 -36 -141 0 c-110 0 -138 3 -129 12 8 8 12 65 12 189 0
172 -1 178 -22 193 -21 15 -18 16 55 16 71 0 77 -1 63 -16z m-221 -69 c-32
-91 -9 -257 47 -340 54 -79 140 -145 221 -170 23 -8 33 -14 22 -14 -38 -2
-142 57 -196 110 -64 62 -104 139 -117 225 -10 63 -2 157 19 206 17 42 21 29
4 -17z m794 -66 c28 -174 -71 -354 -237 -432 -57 -27 -79 -31 -157 -33 l-90
-2 91 7 c159 13 272 89 341 229 37 74 38 79 38 183 0 59 1 106 3 104 1 -1 7
-27 11 -56z"/>
<path d="M2814 823 c-16 -38 -12 -96 8 -120 14 -17 53 -16 67 1 21 25 24 80 7
119 -12 29 -20 37 -41 37 -21 0 -29 -8 -41 -37z"/>
<path d="M3354 835 c-21 -33 -22 -87 -1 -119 35 -53 87 -17 87 59 0 75 -52
112 -86 60z"/>
</g>
</svg>
